<?xml version="1.0" encoding="utf-8"?>
<!-- Generator: Adobe Illustrator 15.1.0, SVG Export Plug-In . SVG Version: 6.00 Build 0)  -->
<!DOCTYPE svg PUBLIC "-//W3C//DTD SVG 1.1//EN" "http://www.w3.org/Graphics/SVG/1.1/DTD/svg11.dtd">
<svg version="1.1" id="Layer_1" xmlns="http://www.w3.org/2000/svg" xmlns:xlink="http://www.w3.org/1999/xlink" x="0px" y="0px"
	 width="1229.55px" height="689.571px" viewBox="0 0 1229.55 689.571" enable-background="new 0 0 1229.55 689.571"
	 xml:space="preserve">
<g>
	<g>
		<g>
			<g>
				<g>
					<path fill="#F39208" d="M110.305,172.025c-7.973-35.825,12.887-62.075,45.386-65.556c0.575,2.957-7.771,7.726-6.935,15.128
						c-0.491,0.14-0.732,0.527-0.633,1.26c-17.575,4.885-30.128,23.53-23.321,46.649c1.051,0,2.1,0,3.153,0
						C122.352,170.627,116.202,171.202,110.305,172.025z"/>
				</g>
				<g>
					<path fill="#F39208" d="M168.926,122.856c0.353-2.659-1.155-6.235-2.521-8.824c-1.721-3.26-5.149-5.596-4.413-7.563
						c30.86,2.918,54.242,29.545,45.388,66.187c-4.542-1.134-9.85-1.498-14.499-2.52
						C199.358,146.735,187.333,127.466,168.926,122.856z"/>
				</g>
				<g>
					<path fill="#FBB814" d="M154.427,121.596c1.191-3.221,1.59-7.238,5.044-8.194c1.029,2.963,3.21,4.776,3.782,8.194
						C160.747,120.703,158.445,121.265,154.427,121.596z"/>
				</g>
				<g>
					<path fill="#E5C467" d="M154.427,173.285c0.632,0,1.264,0,1.894,0c-0.335,3.044,0.721,10.789-0.63,10.715
						C155.181,180.518,156.903,174.802,154.427,173.285z"/>
				</g>
				<g>
					<path fill="#A5AC1B" d="M155.691,199.757c-9.769-1.581-17.734-8.317-17.021-18.278
						C148.353,183.563,155.562,188.122,155.691,199.757z"/>
				</g>
				<g>
					<path fill="#A5AC1B" d="M179.643,182.109c-1.279,10.28-7.647,15.468-17.019,17.648
						C160.834,189.331,170.593,181.707,179.643,182.109z"/>
				</g>
				<g>
					<path fill="#FFFFFF" d="M17.642,16.956c94.345,0,188.684,0,283.03,0c0,94.554,0,189.107,0,283.661
						c-94.553,0-189.106,0-283.66,0c0-93.921,0-187.845,0-281.768C16.958,17.953,16.908,17.063,17.642,16.956z M110.305,172.025
						c6.363,18.977,23.211,36.755,46.016,34.671c-4.306-3.396-10.044-2.935-14.499-6.305c-6.148-4.655-11.566-14.656-8.197-23.954
						c9.718-2.317,17.392,2.751,22.066,7.562c1.349,0.075,0.294-7.671,0.63-10.715c-0.63,0-1.262,0-1.894,0
						c-6.188,0.097-9.562-2.625-13.238-5.044c-5.012-4.889-10.692-14.303-7.564-23.319c4.858-1.274,9.208,0.212,13.241,1.892
						c4.151,1.726,7.413,5.441,9.455,5.041c1.404-13.76-11.331-16.173-7.564-30.256c-0.836-7.402,7.507-12.17,6.935-15.128
						C123.191,109.95,102.332,136.2,110.305,172.025z M207.379,172.656c8.854-36.642-14.526-63.269-45.388-66.187
						c-0.736,1.967,2.692,4.303,4.413,7.563c1.366,2.59,2.874,6.165,2.521,8.824c2.406,14.803-9.414,15.382-7.564,29.628
						c4.248-2.917,14.271-10.747,23.322-6.936c1.605,9.712-3.12,17.652-8.194,22.693c-3.674,2.418-7.045,5.14-13.236,5.043
						c-3.527-0.228-1.751,11.075-1.262,10.715c5.01-4.865,10.819-8.929,21.435-8.193c0.183,1.288,1.705,1.235,1.891,2.523
						c0.44,14.793-7.52,21.793-17.021,25.212c-1.974,0.711-6.382,0.29-6.934,3.784C185.633,207.219,199.979,191.731,207.379,172.656
						z M163.253,121.596c-0.572-3.418-2.753-5.23-3.782-8.194c-3.455,0.957-3.853,4.974-5.044,8.194
						c-1.752,6.381,0.094,14.609,5.044,16.391C162.118,134.262,165.403,128.037,163.253,121.596z M138.041,149.963
						c1.041,11.146,7.375,16.998,18.28,18.278C155.037,157.34,149.184,151.003,138.041,149.963z M161.992,167.613
						c11.262-0.506,16.389-7.147,17.651-17.651C169.14,151.224,162.499,156.349,161.992,167.613z M138.669,181.479
						c-0.713,9.961,7.253,16.698,17.021,18.278C155.562,188.122,148.353,183.563,138.669,181.479z M162.625,199.757
						c9.372-2.18,15.739-7.368,17.019-17.648C170.593,181.707,160.834,189.331,162.625,199.757z"/>
				</g>
				<g>
					<path fill="#E9501E" d="M176.49,168.241c5.074-5.041,9.8-12.98,8.194-22.693c-9.052-3.813-19.074,4.018-23.322,6.936
						c-1.849-14.246,9.972-14.825,7.564-29.628c18.406,4.61,30.432,23.878,23.954,47.279
						C188.017,168.904,181.38,169.447,176.49,168.241z"/>
				</g>
				<g>
					<path fill="#E5C467" d="M161.992,184c-0.489,0.36-2.266-10.942,1.262-10.715C160.779,174.802,162.5,180.518,161.992,184z"/>
				</g>
				<g>
					<path fill="#E9501E" d="M163.253,121.596c2.146,6.44-1.139,12.665-3.782,16.391c-4.95-1.781-6.796-10.01-5.044-16.391
						C158.445,121.265,160.747,120.703,163.253,121.596z"/>
				</g>
				<g>
					<path fill="#EF7D25" d="M156.321,168.241c-10.905-1.283-17.239-7.133-18.28-18.278
						C149.184,151.003,155.037,157.34,156.321,168.241z"/>
				</g>
				<g>
					<path fill="#24A639" d="M127.954,169.505c4.125-0.71,9.283-0.383,13.235-1.264c3.677,2.418,7.05,5.14,13.238,5.043
						c2.476,1.517,0.754,7.233,1.264,10.715c-4.675-4.812-12.351-9.879-22.066-7.562c-3.369,9.298,2.049,19.299,8.197,23.954
						c4.455,3.37,10.193,2.909,14.499,6.305c-22.807,2.084-39.652-15.694-46.016-34.671
						C116.202,171.202,122.352,170.627,127.954,169.505z"/>
				</g>
				<g>
					<path fill="#10A039" d="M163.253,173.285c6.191,0.097,9.563-2.625,13.236-5.043c4.889,1.206,11.527,0.663,16.391,1.895
						c4.649,1.022,9.957,1.387,14.499,2.52c-7.401,19.075-21.747,34.563-46.018,34.671c0.552-3.493,4.96-3.073,6.934-3.784
						c9.502-3.419,17.462-10.419,17.021-25.212c-0.185-1.288-1.707-1.237-1.891-2.523c-10.615-0.736-16.425,3.328-21.435,8.193
						C162.5,180.518,160.779,174.802,163.253,173.285z"/>
				</g>
				<g>
					<path fill="#E9501E" d="M148.755,121.596c-3.766,14.083,8.97,16.496,7.564,30.255c-2.041,0.4-5.304-3.314-9.456-5.041
						c-4.032-1.679-8.384-3.164-13.239-1.891c-3.13,9.017,2.551,18.43,7.564,23.319c-3.953,0.882-9.111,0.554-13.235,1.264
						c-1.052,0-2.103,0-3.153,0c-6.806-23.117,5.746-41.762,23.321-46.647C148.022,122.123,148.263,121.736,148.755,121.596z"/>
				</g>
				<g>
					<path fill="#EF7D25" d="M179.643,149.963c-1.263,10.504-6.39,17.145-17.651,17.652
						C162.499,156.349,169.14,151.224,179.643,149.963z"/>
				</g>
			</g>
			<g enable-background="new    ">
				<path fill="#056734" d="M110.117,225.622c0-0.945-0.245-1.522-0.735-1.731s-1.102-0.314-1.833-0.314
					c-1.507,0-2.872,0.297-4.098,0.89c-1.226,0.593-1.839,1.306-1.839,2.137c0,0.597,0.271,1.118,0.815,1.562
					s1.729,0.933,3.554,1.465c1.77,0.512,3.028,1.039,3.778,1.583s1.124,1.199,1.124,1.966c0,0.774-0.521,1.611-1.566,2.51
					c-1.044,0.899-2.304,1.583-3.777,2.051c-1.475,0.469-2.727,0.704-3.757,0.704c-0.86,0-1.512-0.101-1.956-0.304
					s-0.666-0.457-0.666-0.762c0-0.213,0.065-0.474,0.197-0.783s0.265-0.463,0.399-0.463c0.143,0,0.288,0.025,0.438,0.074
					c0.76,0.285,1.513,0.426,2.259,0.426c1.343,0,2.768-0.392,4.273-1.177c1.507-0.785,2.26-1.519,2.26-2.201
					c0-0.292-0.229-0.57-0.688-0.837c-0.458-0.266-1.618-0.694-3.479-1.284c-2.31-0.731-3.729-1.444-4.258-2.137
					c-0.529-0.692-0.794-1.423-0.794-2.19c0-1.478,0.849-2.669,2.547-3.576c1.698-0.906,3.475-1.358,5.329-1.358
					c1.229,0,2.174,0.208,2.835,0.623c0.66,0.416,0.991,0.876,0.991,1.38c0,0.242-0.075,0.593-0.225,1.055
					C111.097,225.392,110.72,225.622,110.117,225.622z"/>
				<path fill="#056734" d="M116.564,238.048c-0.974,0-1.776-0.369-2.408-1.108c-0.633-0.739-0.949-1.652-0.949-2.739
					c0-1.833,0.616-3.639,1.85-5.419c1.232-1.78,2.708-2.67,4.428-2.67c1.137,0,2.059,0.437,2.766,1.311s1.061,1.915,1.061,3.123
					c0,1.847-0.73,3.56-2.19,5.137S118.141,238.048,116.564,238.048z M115.083,233.924c0,0.718,0.151,1.304,0.453,1.758
					s0.701,0.682,1.199,0.682c1.059,0,2.12-0.581,3.187-1.743c1.065-1.162,1.598-2.453,1.598-3.874c0-0.874-0.204-1.583-0.612-2.126
					s-0.957-0.815-1.646-0.815c-1.144,0-2.126,0.702-2.946,2.104C115.493,231.315,115.083,232.652,115.083,233.924z"/>
				<path fill="#056734" d="M129.523,219.473c0.512,0,0.768,0.327,0.768,0.98c0,0.583-0.31,1.968-0.928,4.156
					c-0.391,1.378-0.692,2.899-0.905,4.561c-0.214,1.663-0.32,2.966-0.32,3.911c0,1.172,0.075,2.338,0.224,3.496
					c0.028,0.221,0.043,0.38,0.043,0.479c0,0.355-0.121,0.661-0.362,0.917c-0.241,0.255-0.497,0.383-0.768,0.383
					c-0.376,0-0.638-0.234-0.783-0.703c-0.146-0.469-0.219-1.226-0.219-2.27c0-2.38,0.286-5.329,0.858-8.846
					c0.572-3.517,1.026-5.574,1.364-6.17C128.832,219.771,129.174,219.473,129.523,219.473z"/>
				<path fill="#056734" d="M134.074,235.15c0,0.54,0.074,1.147,0.224,1.822c0.028,0.128,0.043,0.234,0.043,0.32
					c0,0.128-0.117,0.293-0.353,0.496c-0.234,0.202-0.482,0.304-0.745,0.304c-0.689,0-1.034-0.632-1.034-1.897
					c0-1.307,0.27-3.375,0.81-6.203c0.186-0.987,0.277-1.595,0.277-1.822c0-0.448,0.082-0.83,0.245-1.146
					c0.163-0.316,0.395-0.474,0.692-0.474c0.363,0,0.648,0.087,0.858,0.261c0.209,0.174,0.314,0.368,0.314,0.581
					c0,0.213-0.05,0.494-0.149,0.842c-0.533,1.875-0.863,3.218-0.991,4.028S134.074,234.034,134.074,235.15z M135.469,223.246
					c-0.148,0-0.263-0.16-0.341-0.479c-0.028-0.1-0.067-0.209-0.117-0.331c-0.191-0.461-0.288-0.863-0.288-1.204
					c0-0.284,0.169-0.574,0.507-0.869c0.337-0.294,0.712-0.442,1.124-0.442c0.206,0,0.438,0.08,0.692,0.24
					c0.256,0.16,0.384,0.314,0.384,0.463c0,0.234-0.087,0.632-0.261,1.194c-0.174,0.561-0.451,0.939-0.831,1.135
					C135.958,223.148,135.668,223.246,135.469,223.246z"/>
				<path fill="#056734" d="M141.459,238.048c-0.974,0-1.776-0.369-2.408-1.108c-0.633-0.739-0.949-1.652-0.949-2.739
					c0-1.833,0.616-3.639,1.85-5.419c1.232-1.78,2.708-2.67,4.428-2.67c1.137,0,2.059,0.437,2.766,1.311s1.061,1.915,1.061,3.123
					c0,1.847-0.73,3.56-2.19,5.137S143.037,238.048,141.459,238.048z M139.978,233.924c0,0.718,0.151,1.304,0.453,1.758
					s0.701,0.682,1.199,0.682c1.059,0,2.12-0.581,3.187-1.743c1.065-1.162,1.599-2.453,1.599-3.874c0-0.874-0.205-1.583-0.613-2.126
					s-0.957-0.815-1.646-0.815c-1.144,0-2.126,0.702-2.946,2.104C140.388,231.315,139.978,232.652,139.978,233.924z"/>
				<path fill="#056734" d="M163.445,224.524c-0.136,0.242-0.331,1.018-0.587,2.329c-0.256,1.311-0.384,2.411-0.384,3.298
					c0.49-0.078,0.995-0.146,1.514-0.202l2.238-0.256c0.354-0.05,0.853-0.16,1.492-0.331c0.646-0.17,1.087-0.256,1.321-0.256
					c0.838,0,1.258,0.341,1.258,1.023c0,0.135-0.119,0.305-0.357,0.511c-0.238,0.207-0.555,0.352-0.948,0.437
					c-0.395,0.085-1.345,0.21-2.852,0.373c-1.847,0.213-2.942,0.375-3.287,0.485c-0.345,0.11-0.549,0.22-0.613,0.331
					c-0.063,0.11-0.131,0.625-0.202,1.545c-0.071,0.92-0.106,1.667-0.106,2.243l0.043,1.321c0,0.725-0.264,1.087-0.789,1.087
					c-0.327,0-0.629-0.124-0.906-0.373c-0.276-0.249-0.415-0.583-0.415-1.002c0-1.648,0.404-5.123,1.215-10.423
					c0.191-1.236,0.287-1.9,0.287-1.993c0-0.135-0.042-0.341-0.127-0.618c-0.114-0.348-0.171-0.59-0.171-0.725
					c0-0.192,0.106-0.4,0.319-0.624c0.214-0.224,0.416-0.336,0.607-0.336l1.407,0.16c0.434,0,1.239-0.071,2.419-0.213
					c2.004-0.241,3.378-0.362,4.124-0.362c0.654,0,1.123,0.1,1.407,0.298c0.284,0.199,0.426,0.395,0.426,0.586
					c0,0.341-0.115,0.634-0.346,0.879c-0.231,0.245-0.479,0.368-0.741,0.368c-0.121,0-0.252-0.014-0.394-0.042
					c-0.775-0.128-1.364-0.192-1.77-0.192c-0.761,0-1.746,0.069-2.957,0.208C164.359,224.2,163.65,224.354,163.445,224.524z"/>
				<path fill="#056734" d="M179.538,233.636c-0.995,1.336-1.979,2.338-2.952,3.005c-0.974,0.668-1.865,1.002-2.675,1.002
					c-0.548,0-1.02-0.231-1.418-0.693c-0.397-0.461-0.597-1.055-0.597-1.78c0-1.868,0.835-3.881,2.505-6.037
					c1.669-2.156,3.328-3.234,4.977-3.234c0.597,0,1.041,0.341,1.332,1.023c0.093,0.228,0.238,0.341,0.438,0.341
					c0.568,0,0.853,0.22,0.853,0.661c0,0.22-0.036,0.522-0.107,0.906c-0.383,2.096-0.575,3.574-0.575,4.433
					c0,1.72,0.327,2.75,0.98,3.091c0.313,0.17,0.469,0.38,0.469,0.629c0,0.22-0.152,0.442-0.458,0.666
					c-0.306,0.224-0.601,0.335-0.885,0.335c-0.547,0-0.998-0.376-1.354-1.129S179.538,235.029,179.538,233.636z M178.887,227.636
					c-0.938,0-2.028,0.879-3.271,2.638c-1.243,1.759-1.865,3.217-1.865,4.375c0,0.817,0.27,1.226,0.81,1.226
					c0.782,0,1.865-0.789,3.251-2.366c1.386-1.577,2.078-3.026,2.078-4.348C179.889,228.145,179.555,227.636,178.887,227.636z"/>
				<path fill="#056734" d="M187.317,233.285c0.07-0.128,0.156-0.305,0.256-0.533c0.482-1.108,0.927-1.977,1.332-2.606
					c0.405-0.628,0.851-1.23,1.337-1.806c0.487-0.576,0.931-1.013,1.333-1.311c0.4-0.298,0.765-0.506,1.092-0.623
					c0.327-0.118,0.643-0.176,0.948-0.176c0.618,0,1.123,0.187,1.514,0.56s0.586,0.809,0.586,1.306c0,0.22-0.069,0.419-0.208,0.597
					c-0.138,0.178-0.35,0.267-0.634,0.267c-0.298,0-0.572-0.131-0.82-0.395c-0.256-0.263-0.522-0.394-0.8-0.394
					c-0.738,0-1.762,0.895-3.069,2.686c-1.307,1.791-2.103,3.762-2.387,5.915c-0.071,0.554-0.206,0.92-0.405,1.098
					s-0.479,0.267-0.842,0.267c-0.348,0-0.601-0.259-0.757-0.778s-0.234-1.393-0.234-2.622c0-0.333,0.018-1.069,0.054-2.206
					c0.042-1.343,0.128-2.426,0.256-3.25c0.021-0.135,0.057-0.451,0.106-0.949c0.05-0.547,0.111-0.927,0.187-1.14
					c0.074-0.213,0.228-0.412,0.458-0.597c0.23-0.185,0.481-0.277,0.751-0.277c0.263,0,0.46,0.083,0.592,0.25
					s0.197,0.346,0.197,0.538c0,0.277-0.071,0.668-0.213,1.172c-0.164,0.562-0.26,0.948-0.288,1.162
					c-0.021,0.242-0.061,0.494-0.117,0.757c-0.071,0.305-0.143,1.108-0.213,2.408l-0.011,0.395V233.285z"/>
				<path fill="#056734" d="M204.539,229.086c-0.661,0.014-2.075,1.972-4.242,5.872c-0.731,1.314-1.158,2.03-1.278,2.147
					c-0.121,0.117-0.343,0.222-0.666,0.314s-0.592,0.138-0.805,0.138c-0.477,0-0.714-0.927-0.714-2.781
					c0-1.044,0.224-2.935,0.671-5.67c0.185-1.108,0.277-1.9,0.277-2.376c0-0.469,0.209-0.703,0.629-0.703
					c0.788,0,1.183,0.568,1.183,1.705c0,0.533-0.132,1.577-0.395,3.133c-0.306,1.776-0.462,2.856-0.469,3.24
					c0.44-0.426,1.087-1.36,1.939-2.803c1.208-1.975,2.098-3.228,2.67-3.757s1.163-0.794,1.774-0.794
					c0.462,0,0.829,0.309,1.103,0.927s0.439,2.092,0.496,4.422c0.014,0.583,0.067,1.016,0.16,1.3
					c0.092,0.284,0.159,0.426,0.202,0.426c0.334,0,1.059-1.137,2.174-3.41c0.597-1.201,1.178-2.114,1.742-2.739
					c0.565-0.625,1.192-0.938,1.882-0.938c0.575,0,0.994,0.297,1.257,0.89s0.451,1.472,0.565,2.637
					c0.106,1.18,0.271,2.26,0.495,3.24c0.224,0.98,0.634,1.609,1.231,1.887c0.404,0.192,0.607,0.416,0.607,0.671
					c0,0.249-0.171,0.504-0.512,0.767c-0.341,0.263-0.654,0.395-0.938,0.395c-0.568,0-1.076-0.348-1.523-1.044
					s-0.785-2.203-1.013-4.519c-0.1-0.931-0.195-1.592-0.287-1.982c-0.093-0.391-0.238-0.586-0.438-0.586
					c-0.298,0-0.651,0.284-1.061,0.853c-0.408,0.568-1.067,1.723-1.977,3.463c-0.711,1.357-1.249,2.261-1.614,2.712
					c-0.366,0.451-0.72,0.677-1.061,0.677c-0.306,0-0.579-0.123-0.821-0.368c-0.241-0.245-0.394-0.54-0.458-0.885
					c-0.063-0.344-0.131-1.192-0.202-2.542C205.018,230.763,204.823,229.456,204.539,229.086z"/>
			</g>
		</g>
	</g>
	<g>
		<path fill-rule="evenodd" clip-rule="evenodd" fill="#006633" d="M688.873,284.919c0,6.627-5.164,12-11.535,12H404.822
			c-6.371,0-11.535-5.373-11.535-12V94.407c0-6.627,5.164-12,11.535-12h272.516c6.371,0,11.535,5.373,11.535,12V284.919z"/>
		<g>
			<g>
				<g>
					<path fill="#FFDE00" d="M493.598,204.163c-7.973-35.824,12.887-62.074,45.385-65.555c0.576,2.957-7.77,7.725-6.934,15.128
						c-0.492,0.14-0.732,0.526-0.633,1.26c-17.576,4.885-30.129,23.53-23.322,46.649c1.051,0,2.1,0,3.154,0
						C505.645,202.767,499.494,203.341,493.598,204.163z"/>
					<path fill="#FFDE00" d="M552.219,154.995c0.352-2.659-1.156-6.235-2.521-8.824c-1.721-3.26-5.15-5.596-4.414-7.563
						c30.861,2.918,54.242,29.545,45.389,66.186c-4.543-1.133-9.85-1.496-14.5-2.52C582.65,178.874,570.625,159.604,552.219,154.995
						z"/>
					<path fill="#FBB814" d="M537.719,153.735c1.191-3.221,1.59-7.238,5.045-8.194c1.029,2.963,3.209,4.776,3.781,8.194
						C544.039,152.843,541.736,153.403,537.719,153.735z"/>
					<path fill="#E5C467" d="M537.719,205.423c0.633,0,1.264,0,1.895,0c-0.336,3.045,0.721,10.789-0.631,10.715
						C538.473,212.657,540.195,206.94,537.719,205.423z"/>
					<path fill="#A5AC1B" d="M538.982,231.895c-9.768-1.58-17.734-8.316-17.021-18.277
						C531.645,215.702,538.854,220.261,538.982,231.895z"/>
					<path fill="#A5AC1B" d="M562.936,214.247c-1.279,10.281-7.648,15.468-17.02,17.648
						C544.127,221.47,553.885,213.847,562.936,214.247z"/>
					<path fill="none" d="M400.934,49.095c94.346,0,188.684,0,283.031,0c0,94.554,0,189.106,0,283.66c-94.553,0-189.107,0-283.66,0
						c0-93.92,0-187.844,0-281.767C400.25,50.092,400.199,49.202,400.934,49.095z M493.598,204.163
						c6.363,18.977,23.211,36.755,46.016,34.671c-4.307-3.395-10.045-2.934-14.5-6.305c-6.148-4.654-11.566-14.656-8.197-23.953
						c9.719-2.318,17.393,2.75,22.066,7.561c1.35,0.076,0.295-7.67,0.631-10.715c-0.631,0-1.262,0-1.895,0
						c-6.188,0.098-9.561-2.625-13.238-5.043c-5.012-4.89-10.691-14.304-7.564-23.32c4.859-1.273,9.209,0.213,13.242,1.893
						c4.15,1.726,7.412,5.44,9.455,5.04c1.404-13.76-11.332-16.173-7.564-30.256c-0.836-7.401,7.506-12.171,6.934-15.128
						C506.482,142.089,485.623,168.339,493.598,204.163z M590.672,204.794c8.854-36.641-14.527-63.268-45.389-66.186
						c-0.736,1.967,2.693,4.303,4.414,7.563c1.365,2.59,2.873,6.165,2.521,8.824c2.406,14.803-9.414,15.382-7.564,29.628
						c4.248-2.917,14.271-10.747,23.322-6.936c1.605,9.712-3.121,17.652-8.195,22.692c-3.674,2.418-7.045,5.141-13.236,5.043
						c-3.527-0.227-1.75,11.076-1.262,10.715c5.01-4.865,10.82-8.928,21.436-8.191c0.182,1.287,1.705,1.234,1.891,2.523
						c0.439,14.792-7.52,21.792-17.021,25.21c-1.975,0.711-6.383,0.291-6.934,3.785C568.926,239.358,583.271,223.87,590.672,204.794
						z M546.545,153.735c-0.572-3.418-2.752-5.23-3.781-8.194c-3.455,0.956-3.854,4.974-5.045,8.194
						c-1.752,6.381,0.094,14.609,5.045,16.391C545.41,166.401,548.695,160.176,546.545,153.735z M521.332,182.103
						c1.041,11.145,7.375,16.997,18.281,18.277C538.328,189.479,532.477,183.142,521.332,182.103z M545.283,199.753
						c11.262-0.507,16.389-7.147,17.652-17.652C552.432,183.363,545.791,188.488,545.283,199.753z M521.961,213.618
						c-0.713,9.96,7.254,16.697,17.021,18.277C538.854,220.261,531.645,215.702,521.961,213.618z M545.916,231.895
						c9.373-2.18,15.74-7.367,17.02-17.648C553.885,213.847,544.127,221.47,545.916,231.895z"/>
					<path fill="#E9501E" d="M559.781,200.38c5.074-5.04,9.801-12.98,8.195-22.692c-9.053-3.813-19.074,4.019-23.322,6.936
						c-1.85-14.246,9.971-14.825,7.564-29.628c18.406,4.609,30.432,23.878,23.953,47.279
						C571.309,201.044,564.672,201.586,559.781,200.38z"/>
					<path fill="#E5C467" d="M545.283,216.138c-0.488,0.361-2.266-10.941,1.262-10.715
						C544.07,206.94,545.791,212.657,545.283,216.138z"/>
					<path fill="#E9501E" d="M546.545,153.735c2.146,6.44-1.139,12.664-3.781,16.391c-4.951-1.781-6.797-10.01-5.045-16.391
						C541.736,153.403,544.039,152.843,546.545,153.735z"/>
					<path fill="#EF7D25" d="M539.613,200.38c-10.906-1.282-17.24-7.133-18.281-18.277
						C532.477,183.142,538.328,189.479,539.613,200.38z"/>
					<path fill="#24A639" d="M511.246,201.644c4.125-0.71,9.283-0.383,13.234-1.264c3.678,2.418,7.051,5.141,13.238,5.043
						c2.477,1.518,0.754,7.234,1.264,10.715c-4.674-4.811-12.35-9.879-22.066-7.561c-3.369,9.297,2.049,19.298,8.197,23.953
						c4.455,3.371,10.193,2.91,14.5,6.305c-22.807,2.084-39.652-15.693-46.016-34.671
						C499.494,203.341,505.645,202.767,511.246,201.644z"/>
					<path fill="#10A039" d="M546.545,205.423c6.191,0.098,9.563-2.625,13.236-5.043c4.889,1.206,11.527,0.664,16.391,1.895
						c4.65,1.023,9.957,1.387,14.5,2.52c-7.402,19.076-21.748,34.564-46.018,34.671c0.551-3.492,4.959-3.072,6.934-3.783
						c9.502-3.42,17.461-10.42,17.021-25.212c-0.186-1.287-1.707-1.236-1.891-2.523c-10.615-0.736-16.426,3.328-21.436,8.193
						C545.791,212.657,544.07,206.94,546.545,205.423z"/>
					<path fill="#E9501E" d="M532.047,153.735c-3.766,14.083,8.971,16.496,7.564,30.256c-2.041,0.4-5.303-3.314-9.455-5.041
						c-4.033-1.68-8.385-3.164-13.24-1.891c-3.129,9.017,2.551,18.43,7.564,23.318c-3.953,0.883-9.111,0.555-13.234,1.264
						c-1.053,0-2.104,0-3.154,0c-6.805-23.117,5.746-41.762,23.322-46.647C531.314,154.263,531.555,153.875,532.047,153.735z"/>
					<path fill="#EF7D25" d="M562.936,182.103c-1.264,10.504-6.391,17.145-17.652,17.652
						C545.791,188.488,552.432,183.363,562.936,182.103z"/>
				</g>
				<text transform="matrix(1 0 0 1 481.4941 269.6548)" fill="#FFFFFF" font-family="'SegoePrint-Bold'" font-size="21.8258">Solio Farm</text>
			</g>
		</g>
	</g>
</g>
<g>
	<path fill="#5E190C" d="M310.198,593.916c0,6.628-5.371,12-12,12H41.214c-6.627,0-12-5.372-12-12V395.928c0-6.627,5.373-12,12-12
		h256.984c6.628,0,12,5.373,12,12V593.916z"/>
	<g>
		<g>
			<g>
				<g>
					<path fill="#FFDE00" d="M122.294,496.812c-7.973-35.824,12.887-62.074,45.386-65.556c0.575,2.957-7.771,7.726-6.935,15.128
						c-0.491,0.141-0.732,0.527-0.633,1.26c-17.575,4.885-30.128,23.531-23.321,46.649c1.051,0,2.1,0,3.153,0
						C134.341,495.414,128.19,495.989,122.294,496.812z"/>
				</g>
				<g>
					<path fill="#FFDE00" d="M180.915,447.644c0.353-2.66-1.155-6.236-2.521-8.824c-1.721-3.26-5.149-5.596-4.413-7.563
						c30.86,2.918,54.242,29.546,45.388,66.187c-4.542-1.134-9.85-1.497-14.499-2.52
						C211.347,471.522,199.321,452.253,180.915,447.644z"/>
				</g>
				<g>
					<path fill="#FBB814" d="M166.416,446.384c1.191-3.221,1.59-7.238,5.044-8.195c1.029,2.963,3.21,4.776,3.782,8.195
						C172.735,445.49,170.434,446.052,166.416,446.384z"/>
				</g>
				<g>
					<path fill="#E5C467" d="M166.416,498.071c0.632,0,1.264,0,1.894,0c-0.335,3.045,0.721,10.789-0.63,10.715
						C167.17,505.306,168.892,499.589,166.416,498.071z"/>
				</g>
				<g>
					<path fill="#A5AC1B" d="M167.68,524.544c-9.769-1.58-17.734-8.317-17.021-18.278
						C160.342,508.35,167.551,512.909,167.68,524.544z"/>
				</g>
				<g>
					<path fill="#A5AC1B" d="M191.632,506.896c-1.279,10.281-7.647,15.469-17.019,17.648
						C172.823,514.118,182.582,506.494,191.632,506.896z"/>
				</g>
				<g>
					<path fill="none" d="M29.631,341.743c94.345,0,188.684,0,283.03,0c0,94.554,0,189.107,0,283.661c-94.553,0-189.106,0-283.66,0
						c0-93.921,0-187.845,0-281.769C28.946,342.739,28.896,341.85,29.631,341.743z M122.294,496.812
						c6.363,18.977,23.211,36.756,46.016,34.672c-4.306-3.396-10.044-2.935-14.499-6.305c-6.148-4.654-11.566-14.656-8.197-23.954
						c9.718-2.317,17.392,2.751,22.066,7.562c1.349,0.075,0.294-7.67,0.63-10.715c-0.63,0-1.262,0-1.894,0
						c-6.188,0.098-9.562-2.625-13.238-5.044c-5.012-4.89-10.692-14.304-7.564-23.319c4.858-1.273,9.208,0.213,13.241,1.892
						c4.151,1.726,7.413,5.44,9.455,5.04c1.404-13.76-11.331-16.172-7.564-30.256c-0.836-7.401,7.507-12.17,6.935-15.128
						C135.18,434.737,114.32,460.987,122.294,496.812z M219.368,497.442c8.854-36.641-14.526-63.269-45.388-66.187
						c-0.736,1.968,2.692,4.304,4.413,7.563c1.366,2.59,2.874,6.164,2.521,8.824c2.406,14.803-9.414,15.381-7.564,29.627
						c4.248-2.916,14.271-10.746,23.322-6.936c1.605,9.713-3.12,17.652-8.194,22.693c-3.674,2.418-7.045,5.141-13.236,5.043
						c-3.527-0.227-1.751,11.076-1.262,10.715c5.01-4.865,10.819-8.929,21.435-8.192c0.183,1.288,1.705,1.235,1.891,2.523
						c0.44,14.794-7.52,21.793-17.021,25.212c-1.974,0.711-6.382,0.291-6.934,3.784
						C197.622,532.007,211.968,516.519,219.368,497.442z M175.242,446.384c-0.572-3.419-2.753-5.23-3.782-8.195
						c-3.455,0.957-3.853,4.975-5.044,8.195c-1.752,6.381,0.094,14.609,5.044,16.391
						C174.106,459.049,177.392,452.823,175.242,446.384z M150.029,474.75c1.041,11.146,7.375,16.997,18.28,18.278
						C167.025,482.128,161.173,475.79,150.029,474.75z M173.98,492.4c11.262-0.507,16.389-7.147,17.651-17.651
						C181.129,476.011,174.487,481.136,173.98,492.4z M150.658,506.266c-0.713,9.961,7.253,16.698,17.021,18.278
						C167.551,512.909,160.342,508.35,150.658,506.266z M174.613,524.544c9.372-2.18,15.739-7.367,17.019-17.648
						C182.582,506.494,172.823,514.118,174.613,524.544z"/>
				</g>
				<g>
					<path fill="#E9501E" d="M188.479,493.028c5.074-5.041,9.8-12.98,8.194-22.693c-9.052-3.813-19.074,4.019-23.322,6.936
						c-1.849-14.246,9.972-14.824,7.564-29.627c18.406,4.609,30.432,23.877,23.954,47.278
						C200.006,493.691,193.369,494.233,188.479,493.028z"/>
				</g>
				<g>
					<path fill="#E5C467" d="M173.98,508.786c-0.489,0.361-2.266-10.941,1.262-10.715
						C172.768,499.589,174.488,505.306,173.98,508.786z"/>
				</g>
				<g>
					<path fill="#E9501E" d="M175.242,446.384c2.146,6.439-1.139,12.664-3.782,16.391c-4.95-1.781-6.796-10.01-5.044-16.391
						C170.434,446.052,172.735,445.49,175.242,446.384z"/>
				</g>
				<g>
					<path fill="#EF7D25" d="M168.31,493.028c-10.905-1.283-17.239-7.133-18.28-18.278
						C161.173,475.79,167.025,482.128,168.31,493.028z"/>
				</g>
				<g>
					<path fill="#24A639" d="M139.942,494.292c4.125-0.711,9.283-0.383,13.235-1.264c3.677,2.418,7.05,5.141,13.238,5.043
						c2.476,1.518,0.754,7.234,1.264,10.715c-4.675-4.812-12.351-9.879-22.066-7.562c-3.369,9.298,2.049,19.3,8.197,23.954
						c4.455,3.37,10.193,2.909,14.499,6.305c-22.807,2.084-39.652-15.693-46.016-34.672
						C128.19,495.989,134.341,495.414,139.942,494.292z"/>
				</g>
				<g>
					<path fill="#10A039" d="M175.242,498.071c6.191,0.098,9.563-2.625,13.236-5.043c4.889,1.205,11.527,0.663,16.391,1.895
						c4.649,1.022,9.957,1.387,14.499,2.52c-7.401,19.076-21.747,34.564-46.018,34.672c0.552-3.493,4.96-3.072,6.934-3.783
						c9.502-3.42,17.462-10.42,17.021-25.213c-0.185-1.288-1.707-1.236-1.891-2.523c-10.615-0.736-16.425,3.328-21.435,8.193
						C174.488,505.306,172.768,499.589,175.242,498.071z"/>
				</g>
				<g>
					<path fill="#E9501E" d="M160.744,446.384c-3.766,14.082,8.97,16.496,7.564,30.255c-2.041,0.4-5.304-3.314-9.456-5.04
						c-4.032-1.68-8.384-3.164-13.239-1.892c-3.13,9.017,2.551,18.431,7.564,23.319c-3.953,0.882-9.111,0.554-13.235,1.264
						c-1.052,0-2.103,0-3.153,0c-6.806-23.117,5.746-41.762,23.321-46.648C160.011,446.91,160.252,446.522,160.744,446.384z"/>
				</g>
				<g>
					<path fill="#EF7D25" d="M191.632,474.75c-1.263,10.505-6.39,17.146-17.651,17.652
						C174.487,481.136,181.129,476.011,191.632,474.75z"/>
				</g>
			</g>
			<g enable-background="new    ">
				<path fill="#FFFFFF" d="M122.105,550.409c0-0.945-0.245-1.521-0.735-1.731s-1.102-0.314-1.833-0.314
					c-1.507,0-2.872,0.297-4.098,0.89c-1.226,0.594-1.839,1.306-1.839,2.137c0,0.598,0.271,1.117,0.815,1.562
					s1.729,0.933,3.554,1.466c1.77,0.512,3.028,1.039,3.778,1.582s1.124,1.199,1.124,1.967c0,0.773-0.521,1.61-1.566,2.51
					c-1.044,0.898-2.304,1.582-3.777,2.051c-1.475,0.469-2.727,0.703-3.757,0.703c-0.86,0-1.512-0.101-1.956-0.303
					c-0.444-0.203-0.666-0.457-0.666-0.763c0-0.213,0.065-0.474,0.197-0.783s0.265-0.464,0.399-0.464
					c0.143,0,0.288,0.025,0.438,0.074c0.76,0.285,1.513,0.427,2.259,0.427c1.343,0,2.768-0.392,4.273-1.177
					c1.507-0.785,2.26-1.52,2.26-2.201c0-0.291-0.229-0.57-0.688-0.837s-1.618-0.694-3.479-1.284
					c-2.31-0.731-3.729-1.443-4.258-2.137c-0.529-0.692-0.794-1.423-0.794-2.189c0-1.479,0.849-2.67,2.547-3.576
					s3.475-1.358,5.329-1.358c1.229,0,2.174,0.208,2.835,0.623c0.66,0.416,0.991,0.876,0.991,1.38c0,0.242-0.075,0.594-0.225,1.056
					C123.086,550.179,122.709,550.409,122.105,550.409z"/>
				<path fill="#FFFFFF" d="M128.553,562.835c-0.974,0-1.776-0.369-2.408-1.107c-0.633-0.739-0.949-1.652-0.949-2.739
					c0-1.833,0.616-3.64,1.85-5.419c1.232-1.779,2.708-2.67,4.428-2.67c1.137,0,2.059,0.438,2.766,1.311
					c0.707,0.875,1.061,1.915,1.061,3.123c0,1.848-0.73,3.56-2.19,5.137S130.13,562.835,128.553,562.835z M127.071,558.712
					c0,0.717,0.151,1.303,0.453,1.758s0.701,0.682,1.199,0.682c1.059,0,2.12-0.58,3.187-1.742c1.065-1.162,1.598-2.453,1.598-3.873
					c0-0.875-0.204-1.584-0.612-2.127s-0.957-0.814-1.646-0.814c-1.144,0-2.126,0.701-2.946,2.104
					C127.481,556.103,127.071,557.439,127.071,558.712z"/>
				<path fill="#FFFFFF" d="M141.512,544.261c0.512,0,0.768,0.326,0.768,0.98c0,0.582-0.31,1.967-0.928,4.156
					c-0.391,1.378-0.692,2.898-0.905,4.561c-0.214,1.662-0.32,2.967-0.32,3.911c0,1.173,0.075,2.338,0.224,3.495
					c0.028,0.221,0.043,0.381,0.043,0.48c0,0.355-0.121,0.66-0.362,0.916s-0.497,0.384-0.768,0.384
					c-0.376,0-0.638-0.234-0.783-0.703c-0.146-0.47-0.219-1.226-0.219-2.271c0-2.379,0.286-5.328,0.858-8.846
					c0.572-3.516,1.026-5.573,1.364-6.17C140.82,544.559,141.163,544.261,141.512,544.261z"/>
				<path fill="#FFFFFF" d="M146.063,559.937c0,0.541,0.074,1.148,0.224,1.822c0.028,0.129,0.043,0.234,0.043,0.32
					c0,0.128-0.117,0.293-0.353,0.496c-0.234,0.201-0.482,0.303-0.745,0.303c-0.689,0-1.034-0.632-1.034-1.896
					c0-1.307,0.27-3.375,0.81-6.203c0.186-0.986,0.277-1.594,0.277-1.822c0-0.447,0.082-0.829,0.245-1.146
					c0.163-0.315,0.395-0.474,0.692-0.474c0.363,0,0.648,0.087,0.858,0.261c0.209,0.175,0.314,0.368,0.314,0.581
					s-0.05,0.494-0.149,0.842c-0.533,1.875-0.863,3.219-0.991,4.028S146.063,558.821,146.063,559.937z M147.458,548.032
					c-0.148,0-0.263-0.159-0.341-0.479c-0.028-0.1-0.067-0.21-0.117-0.331c-0.191-0.462-0.288-0.862-0.288-1.204
					c0-0.284,0.169-0.574,0.507-0.869c0.337-0.294,0.712-0.441,1.124-0.441c0.206,0,0.438,0.08,0.692,0.24
					c0.256,0.159,0.384,0.313,0.384,0.463c0,0.234-0.087,0.633-0.261,1.193c-0.174,0.562-0.451,0.939-0.831,1.135
					C147.946,547.935,147.657,548.032,147.458,548.032z"/>
				<path fill="#FFFFFF" d="M153.448,562.835c-0.974,0-1.776-0.369-2.408-1.107c-0.633-0.739-0.949-1.652-0.949-2.739
					c0-1.833,0.616-3.64,1.85-5.419c1.232-1.779,2.708-2.67,4.428-2.67c1.137,0,2.059,0.438,2.766,1.311
					c0.707,0.875,1.061,1.915,1.061,3.123c0,1.848-0.73,3.56-2.19,5.137S155.025,562.835,153.448,562.835z M151.967,558.712
					c0,0.717,0.151,1.303,0.453,1.758s0.701,0.682,1.199,0.682c1.059,0,2.12-0.58,3.187-1.742c1.065-1.162,1.599-2.453,1.599-3.873
					c0-0.875-0.205-1.584-0.613-2.127s-0.957-0.814-1.646-0.814c-1.144,0-2.126,0.701-2.946,2.104
					C152.377,556.103,151.967,557.439,151.967,558.712z"/>
				<path fill="#FFFFFF" d="M175.434,549.312c-0.136,0.242-0.331,1.018-0.587,2.328c-0.256,1.312-0.384,2.411-0.384,3.299
					c0.49-0.078,0.995-0.146,1.514-0.202l2.238-0.256c0.354-0.05,0.853-0.16,1.492-0.331c0.646-0.17,1.087-0.256,1.321-0.256
					c0.838,0,1.258,0.342,1.258,1.023c0,0.135-0.119,0.306-0.357,0.512c-0.238,0.207-0.555,0.352-0.948,0.438
					c-0.395,0.085-1.345,0.209-2.852,0.373c-1.847,0.213-2.942,0.375-3.287,0.484c-0.345,0.11-0.549,0.221-0.613,0.33
					c-0.063,0.111-0.131,0.625-0.202,1.546c-0.071,0.92-0.106,1.667-0.106,2.243l0.043,1.321c0,0.725-0.264,1.087-0.789,1.087
					c-0.327,0-0.629-0.124-0.906-0.373c-0.276-0.248-0.415-0.582-0.415-1.002c0-1.648,0.404-5.122,1.215-10.422
					c0.191-1.236,0.287-1.9,0.287-1.993c0-0.135-0.042-0.341-0.127-0.618c-0.114-0.348-0.171-0.59-0.171-0.725
					c0-0.191,0.106-0.4,0.319-0.623c0.214-0.225,0.416-0.336,0.607-0.336l1.407,0.16c0.434,0,1.239-0.071,2.419-0.214
					c2.004-0.241,3.378-0.362,4.124-0.362c0.654,0,1.123,0.1,1.407,0.299s0.426,0.395,0.426,0.586c0,0.341-0.115,0.634-0.346,0.879
					c-0.231,0.245-0.479,0.367-0.741,0.367c-0.121,0-0.252-0.014-0.394-0.042c-0.775-0.128-1.364-0.192-1.77-0.192
					c-0.761,0-1.746,0.07-2.957,0.209C176.348,548.987,175.639,549.142,175.434,549.312z"/>
				<path fill="#FFFFFF" d="M191.526,558.423c-0.995,1.336-1.979,2.338-2.952,3.006s-1.865,1.002-2.675,1.002
					c-0.548,0-1.02-0.23-1.418-0.693c-0.397-0.461-0.597-1.055-0.597-1.779c0-1.868,0.835-3.881,2.505-6.037
					c1.669-2.156,3.328-3.234,4.977-3.234c0.597,0,1.041,0.341,1.332,1.023c0.093,0.227,0.238,0.341,0.438,0.341
					c0.568,0,0.853,0.22,0.853,0.661c0,0.22-0.036,0.521-0.107,0.905c-0.383,2.096-0.575,3.573-0.575,4.433
					c0,1.721,0.327,2.75,0.98,3.092c0.313,0.17,0.469,0.38,0.469,0.629c0,0.22-0.152,0.441-0.458,0.666
					c-0.306,0.223-0.601,0.335-0.885,0.335c-0.547,0-0.998-0.376-1.354-1.13C191.703,560.89,191.526,559.815,191.526,558.423z
					 M190.876,552.423c-0.938,0-2.028,0.88-3.271,2.639c-1.243,1.758-1.865,3.217-1.865,4.375c0,0.816,0.27,1.225,0.81,1.225
					c0.782,0,1.865-0.788,3.251-2.365c1.386-1.578,2.078-3.027,2.078-4.348C191.878,552.932,191.544,552.423,190.876,552.423z"/>
				<path fill="#FFFFFF" d="M199.306,558.071c0.07-0.127,0.156-0.305,0.256-0.532c0.482-1.108,0.927-1.978,1.332-2.606
					c0.405-0.628,0.851-1.23,1.337-1.806c0.487-0.575,0.931-1.013,1.333-1.312c0.4-0.298,0.765-0.506,1.092-0.623
					s0.643-0.176,0.948-0.176c0.618,0,1.123,0.187,1.514,0.56s0.586,0.809,0.586,1.306c0,0.221-0.069,0.42-0.208,0.597
					c-0.138,0.178-0.35,0.267-0.634,0.267c-0.298,0-0.572-0.131-0.82-0.395c-0.256-0.263-0.522-0.395-0.8-0.395
					c-0.738,0-1.762,0.896-3.069,2.686c-1.307,1.791-2.103,3.762-2.387,5.915c-0.071,0.554-0.206,0.92-0.405,1.098
					s-0.479,0.267-0.842,0.267c-0.348,0-0.601-0.26-0.757-0.777c-0.156-0.52-0.234-1.393-0.234-2.623
					c0-0.333,0.018-1.068,0.054-2.205c0.042-1.344,0.128-2.426,0.256-3.25c0.021-0.136,0.057-0.451,0.106-0.949
					c0.05-0.547,0.111-0.928,0.187-1.141c0.074-0.213,0.228-0.412,0.458-0.596c0.23-0.186,0.481-0.277,0.751-0.277
					c0.263,0,0.46,0.083,0.592,0.25s0.197,0.346,0.197,0.538c0,0.277-0.071,0.668-0.213,1.173c-0.164,0.561-0.26,0.947-0.288,1.161
					c-0.021,0.241-0.061,0.494-0.117,0.757c-0.071,0.305-0.143,1.108-0.213,2.408l-0.011,0.395V558.071z"/>
				<path fill="#FFFFFF" d="M216.527,553.873c-0.661,0.015-2.075,1.972-4.242,5.872c-0.731,1.314-1.158,2.03-1.278,2.147
					c-0.121,0.117-0.343,0.222-0.666,0.314s-0.592,0.138-0.805,0.138c-0.477,0-0.714-0.927-0.714-2.781
					c0-1.044,0.224-2.934,0.671-5.67c0.185-1.107,0.277-1.9,0.277-2.376c0-0.469,0.209-0.703,0.629-0.703
					c0.788,0,1.183,0.568,1.183,1.705c0,0.532-0.132,1.577-0.395,3.134c-0.306,1.775-0.462,2.855-0.469,3.239
					c0.44-0.427,1.087-1.36,1.939-2.803c1.208-1.976,2.098-3.228,2.67-3.757s1.163-0.794,1.774-0.794
					c0.462,0,0.829,0.31,1.103,0.927c0.273,0.619,0.439,2.093,0.496,4.423c0.014,0.583,0.067,1.017,0.16,1.3
					c0.092,0.285,0.159,0.427,0.202,0.427c0.334,0,1.059-1.137,2.174-3.41c0.597-1.2,1.178-2.114,1.742-2.739
					c0.565-0.625,1.192-0.938,1.882-0.938c0.575,0,0.994,0.297,1.257,0.891c0.263,0.593,0.451,1.472,0.565,2.637
					c0.106,1.18,0.271,2.26,0.495,3.24s0.634,1.609,1.231,1.887c0.404,0.191,0.607,0.415,0.607,0.671
					c0,0.249-0.171,0.505-0.512,0.767c-0.341,0.264-0.654,0.395-0.938,0.395c-0.568,0-1.076-0.348-1.523-1.044
					s-0.785-2.202-1.013-4.519c-0.1-0.931-0.195-1.592-0.287-1.982c-0.093-0.391-0.238-0.586-0.438-0.586
					c-0.298,0-0.651,0.284-1.061,0.853c-0.408,0.568-1.067,1.723-1.977,3.464c-0.711,1.356-1.249,2.261-1.614,2.712
					c-0.366,0.451-0.72,0.677-1.061,0.677c-0.306,0-0.579-0.123-0.821-0.367c-0.241-0.246-0.394-0.541-0.458-0.885
					c-0.063-0.345-0.131-1.192-0.202-2.542C217.007,555.55,216.812,554.243,216.527,553.873z"/>
			</g>
		</g>
	</g>
</g>
<g>
	<path d="M689.836,614.779c0,6.628-5.372,12-12,12H410.969c-6.628,0-12-5.372-12-12V412.724c0-6.627,5.372-12,12-12h266.867
		c6.628,0,12,5.373,12,12V614.779z"/>
	<g>
		<g>
			<g>
				<g>
					<path fill="#FFDE00" d="M498.06,512.811c-7.973-35.824,12.887-62.074,45.386-65.556c0.575,2.957-7.771,7.726-6.935,15.128
						c-0.491,0.141-0.732,0.527-0.633,1.26c-17.575,4.885-30.128,23.531-23.321,46.649c1.051,0,2.1,0,3.153,0
						C510.106,511.413,503.956,511.988,498.06,512.811z"/>
				</g>
				<g>
					<path fill="#FFDE00" d="M556.681,463.643c0.353-2.66-1.155-6.236-2.521-8.824c-1.721-3.26-5.149-5.596-4.413-7.563
						c30.86,2.918,54.242,29.546,45.388,66.187c-4.542-1.134-9.85-1.497-14.499-2.52
						C587.112,487.521,575.087,468.252,556.681,463.643z"/>
				</g>
				<g>
					<path fill="#FBB814" d="M542.182,462.383c1.191-3.221,1.59-7.238,5.044-8.195c1.029,2.963,3.21,4.776,3.782,8.195
						C548.501,461.489,546.199,462.051,542.182,462.383z"/>
				</g>
				<g>
					<path fill="#E5C467" d="M542.182,514.07c0.632,0,1.264,0,1.894,0c-0.335,3.045,0.721,10.789-0.63,10.715
						C542.936,521.305,544.657,515.588,542.182,514.07z"/>
				</g>
				<g>
					<path fill="#A5AC1B" d="M543.445,540.543c-9.769-1.58-17.734-8.317-17.021-18.278
						C536.107,524.349,543.316,528.908,543.445,540.543z"/>
				</g>
				<g>
					<path fill="#A5AC1B" d="M567.397,522.895c-1.279,10.281-7.647,15.469-17.019,17.648
						C548.589,530.117,558.348,522.493,567.397,522.895z"/>
				</g>
				<g>
					<path fill="none" d="M405.396,357.742c94.345,0,188.684,0,283.03,0c0,94.554,0,189.107,0,283.661c-94.553,0-189.106,0-283.66,0
						c0-93.921,0-187.845,0-281.769C404.712,358.738,404.662,357.849,405.396,357.742z M498.06,512.811
						c6.363,18.977,23.211,36.756,46.016,34.672c-4.306-3.396-10.044-2.935-14.499-6.305c-6.148-4.654-11.566-14.656-8.197-23.954
						c9.718-2.317,17.392,2.751,22.066,7.562c1.349,0.075,0.294-7.67,0.63-10.715c-0.63,0-1.262,0-1.894,0
						c-6.188,0.098-9.562-2.625-13.238-5.044c-5.012-4.89-10.692-14.304-7.564-23.319c4.858-1.273,9.208,0.213,13.241,1.892
						c4.151,1.726,7.413,5.44,9.455,5.04c1.404-13.76-11.331-16.172-7.564-30.256c-0.836-7.401,7.507-12.17,6.935-15.128
						C510.945,450.736,490.086,476.986,498.06,512.811z M595.134,513.441c8.854-36.641-14.526-63.269-45.388-66.187
						c-0.736,1.968,2.692,4.304,4.413,7.563c1.366,2.59,2.874,6.164,2.521,8.824c2.406,14.803-9.414,15.381-7.564,29.627
						c4.248-2.916,14.271-10.746,23.322-6.936c1.605,9.713-3.12,17.652-8.194,22.693c-3.674,2.418-7.045,5.141-13.236,5.043
						c-3.527-0.227-1.751,11.076-1.262,10.715c5.01-4.865,10.819-8.929,21.435-8.192c0.183,1.288,1.705,1.235,1.891,2.523
						c0.44,14.794-7.52,21.793-17.021,25.212c-1.974,0.711-6.382,0.291-6.934,3.784
						C573.388,548.006,587.733,532.518,595.134,513.441z M551.008,462.383c-0.572-3.419-2.753-5.23-3.782-8.195
						c-3.455,0.957-3.853,4.975-5.044,8.195c-1.752,6.381,0.094,14.609,5.044,16.391
						C549.872,475.048,553.157,468.822,551.008,462.383z M525.795,490.749c1.041,11.146,7.375,16.997,18.28,18.278
						C542.791,498.127,536.938,491.789,525.795,490.749z M549.746,508.399c11.262-0.507,16.389-7.147,17.651-17.651
						C556.895,492.01,550.253,497.135,549.746,508.399z M526.424,522.265c-0.713,9.961,7.253,16.698,17.021,18.278
						C543.316,528.908,536.107,524.349,526.424,522.265z M550.379,540.543c9.372-2.18,15.739-7.367,17.019-17.648
						C558.348,522.493,548.589,530.117,550.379,540.543z"/>
				</g>
				<g>
					<path fill="#E9501E" d="M564.244,509.027c5.074-5.041,9.8-12.98,8.194-22.693c-9.052-3.813-19.074,4.019-23.322,6.936
						c-1.849-14.246,9.972-14.824,7.564-29.627c18.406,4.609,30.432,23.877,23.954,47.278
						C575.771,509.69,569.135,510.232,564.244,509.027z"/>
				</g>
				<g>
					<path fill="#E5C467" d="M549.746,524.785c-0.489,0.361-2.266-10.941,1.262-10.715
						C548.533,515.588,550.254,521.305,549.746,524.785z"/>
				</g>
				<g>
					<path fill="#E9501E" d="M551.008,462.383c2.146,6.439-1.139,12.664-3.782,16.391c-4.95-1.781-6.796-10.01-5.044-16.391
						C546.199,462.051,548.501,461.489,551.008,462.383z"/>
				</g>
				<g>
					<path fill="#EF7D25" d="M544.075,509.027c-10.905-1.283-17.239-7.133-18.28-18.278
						C536.938,491.789,542.791,498.127,544.075,509.027z"/>
				</g>
				<g>
					<path fill="#24A639" d="M515.708,510.291c4.125-0.711,9.283-0.383,13.235-1.264c3.677,2.418,7.05,5.141,13.238,5.043
						c2.476,1.518,0.754,7.234,1.264,10.715c-4.675-4.812-12.351-9.879-22.066-7.562c-3.369,9.298,2.049,19.3,8.197,23.954
						c4.455,3.37,10.193,2.909,14.499,6.305c-22.807,2.084-39.652-15.693-46.016-34.672
						C503.956,511.988,510.106,511.413,515.708,510.291z"/>
				</g>
				<g>
					<path fill="#10A039" d="M551.008,514.07c6.191,0.098,9.563-2.625,13.236-5.043c4.889,1.205,11.527,0.663,16.391,1.895
						c4.649,1.022,9.957,1.387,14.499,2.52c-7.401,19.076-21.747,34.564-46.018,34.672c0.552-3.493,4.96-3.072,6.934-3.783
						c9.502-3.42,17.462-10.42,17.021-25.213c-0.185-1.288-1.707-1.236-1.891-2.523c-10.615-0.736-16.425,3.328-21.435,8.193
						C550.254,521.305,548.533,515.588,551.008,514.07z"/>
				</g>
				<g>
					<path fill="#E9501E" d="M536.51,462.383c-3.766,14.082,8.97,16.496,7.564,30.255c-2.041,0.4-5.304-3.314-9.456-5.04
						c-4.032-1.68-8.384-3.164-13.239-1.892c-3.13,9.017,2.551,18.431,7.564,23.319c-3.953,0.882-9.111,0.554-13.235,1.264
						c-1.052,0-2.103,0-3.153,0c-6.806-23.117,5.746-41.762,23.321-46.648C535.776,462.909,536.018,462.521,536.51,462.383z"/>
				</g>
				<g>
					<path fill="#EF7D25" d="M567.397,490.749c-1.263,10.505-6.39,17.146-17.651,17.652
						C550.253,497.135,556.895,492.01,567.397,490.749z"/>
				</g>
			</g>
			<g enable-background="new    ">
				<path fill="#FFFFFF" d="M497.871,566.408c0-0.945-0.245-1.521-0.735-1.731s-1.102-0.314-1.833-0.314
					c-1.507,0-2.872,0.297-4.098,0.89c-1.226,0.594-1.839,1.306-1.839,2.137c0,0.598,0.271,1.117,0.815,1.562
					s1.729,0.933,3.554,1.466c1.77,0.512,3.028,1.039,3.778,1.582s1.124,1.199,1.124,1.967c0,0.773-0.521,1.61-1.566,2.51
					c-1.044,0.898-2.304,1.582-3.777,2.051c-1.475,0.469-2.727,0.703-3.757,0.703c-0.86,0-1.512-0.101-1.956-0.303
					c-0.444-0.203-0.666-0.457-0.666-0.763c0-0.213,0.065-0.474,0.197-0.783s0.265-0.464,0.399-0.464
					c0.143,0,0.288,0.025,0.438,0.074c0.76,0.285,1.513,0.427,2.259,0.427c1.343,0,2.768-0.392,4.273-1.177
					c1.507-0.785,2.26-1.52,2.26-2.201c0-0.291-0.229-0.57-0.688-0.837s-1.618-0.694-3.479-1.284
					c-2.31-0.731-3.729-1.443-4.258-2.137c-0.529-0.692-0.794-1.423-0.794-2.189c0-1.479,0.849-2.67,2.547-3.576
					s3.475-1.358,5.329-1.358c1.229,0,2.174,0.208,2.835,0.623c0.66,0.416,0.991,0.876,0.991,1.38c0,0.242-0.075,0.594-0.225,1.056
					C498.852,566.178,498.475,566.408,497.871,566.408z"/>
				<path fill="#FFFFFF" d="M504.318,578.834c-0.974,0-1.776-0.369-2.408-1.107c-0.633-0.739-0.949-1.652-0.949-2.739
					c0-1.833,0.616-3.64,1.85-5.419c1.232-1.779,2.708-2.67,4.428-2.67c1.137,0,2.059,0.438,2.766,1.311
					c0.707,0.875,1.061,1.915,1.061,3.123c0,1.848-0.73,3.56-2.19,5.137S505.896,578.834,504.318,578.834z M502.837,574.711
					c0,0.717,0.151,1.303,0.453,1.758s0.701,0.682,1.199,0.682c1.059,0,2.12-0.58,3.187-1.742c1.065-1.162,1.598-2.453,1.598-3.873
					c0-0.875-0.204-1.584-0.612-2.127s-0.957-0.814-1.646-0.814c-1.144,0-2.126,0.701-2.946,2.104
					C503.247,572.102,502.837,573.438,502.837,574.711z"/>
				<path fill="#FFFFFF" d="M517.277,560.26c0.512,0,0.768,0.326,0.768,0.98c0,0.582-0.31,1.967-0.928,4.156
					c-0.391,1.378-0.692,2.898-0.905,4.561c-0.214,1.662-0.32,2.967-0.32,3.911c0,1.173,0.075,2.338,0.224,3.495
					c0.028,0.221,0.043,0.381,0.043,0.48c0,0.355-0.121,0.66-0.362,0.916s-0.497,0.384-0.768,0.384
					c-0.376,0-0.638-0.234-0.783-0.703c-0.146-0.47-0.219-1.226-0.219-2.271c0-2.379,0.286-5.328,0.858-8.846
					c0.572-3.516,1.026-5.573,1.364-6.17C516.586,560.558,516.929,560.26,517.277,560.26z"/>
				<path fill="#FFFFFF" d="M521.828,575.936c0,0.541,0.074,1.148,0.224,1.822c0.028,0.129,0.043,0.234,0.043,0.32
					c0,0.128-0.117,0.293-0.353,0.496c-0.234,0.201-0.482,0.303-0.745,0.303c-0.689,0-1.034-0.632-1.034-1.896
					c0-1.307,0.27-3.375,0.81-6.203c0.186-0.986,0.277-1.594,0.277-1.822c0-0.447,0.082-0.829,0.245-1.146
					c0.163-0.315,0.395-0.474,0.692-0.474c0.363,0,0.648,0.087,0.858,0.261c0.209,0.175,0.314,0.368,0.314,0.581
					s-0.05,0.494-0.149,0.842c-0.533,1.875-0.863,3.219-0.991,4.028S521.828,574.82,521.828,575.936z M523.224,564.031
					c-0.148,0-0.263-0.159-0.341-0.479c-0.028-0.1-0.067-0.21-0.117-0.331c-0.191-0.462-0.288-0.862-0.288-1.204
					c0-0.284,0.169-0.574,0.507-0.869c0.337-0.294,0.712-0.441,1.124-0.441c0.206,0,0.438,0.08,0.692,0.24
					c0.256,0.159,0.384,0.313,0.384,0.463c0,0.234-0.087,0.633-0.261,1.193c-0.174,0.562-0.451,0.939-0.831,1.135
					C523.712,563.934,523.423,564.031,523.224,564.031z"/>
				<path fill="#FFFFFF" d="M529.214,578.834c-0.974,0-1.776-0.369-2.408-1.107c-0.633-0.739-0.949-1.652-0.949-2.739
					c0-1.833,0.616-3.64,1.85-5.419c1.232-1.779,2.708-2.67,4.428-2.67c1.137,0,2.059,0.438,2.766,1.311
					c0.707,0.875,1.061,1.915,1.061,3.123c0,1.848-0.73,3.56-2.19,5.137S530.791,578.834,529.214,578.834z M527.732,574.711
					c0,0.717,0.151,1.303,0.453,1.758s0.701,0.682,1.199,0.682c1.059,0,2.12-0.58,3.187-1.742c1.065-1.162,1.599-2.453,1.599-3.873
					c0-0.875-0.205-1.584-0.613-2.127s-0.957-0.814-1.646-0.814c-1.144,0-2.126,0.701-2.946,2.104
					C528.143,572.102,527.732,573.438,527.732,574.711z"/>
				<path fill="#FFFFFF" d="M551.199,565.311c-0.136,0.242-0.331,1.018-0.587,2.328c-0.256,1.312-0.384,2.411-0.384,3.299
					c0.49-0.078,0.995-0.146,1.514-0.202l2.238-0.256c0.354-0.05,0.853-0.16,1.492-0.331c0.646-0.17,1.087-0.256,1.321-0.256
					c0.838,0,1.258,0.342,1.258,1.023c0,0.135-0.119,0.306-0.357,0.512c-0.238,0.207-0.555,0.352-0.948,0.438
					c-0.395,0.085-1.345,0.209-2.852,0.373c-1.847,0.213-2.942,0.375-3.287,0.484c-0.345,0.11-0.549,0.221-0.613,0.33
					c-0.063,0.111-0.131,0.625-0.202,1.546c-0.071,0.92-0.106,1.667-0.106,2.243l0.043,1.321c0,0.725-0.264,1.087-0.789,1.087
					c-0.327,0-0.629-0.124-0.906-0.373c-0.276-0.248-0.415-0.582-0.415-1.002c0-1.648,0.404-5.122,1.215-10.422
					c0.191-1.236,0.287-1.9,0.287-1.993c0-0.135-0.042-0.341-0.127-0.618c-0.114-0.348-0.171-0.59-0.171-0.725
					c0-0.191,0.106-0.4,0.319-0.623c0.214-0.225,0.416-0.336,0.607-0.336l1.407,0.16c0.434,0,1.239-0.071,2.419-0.214
					c2.004-0.241,3.378-0.362,4.124-0.362c0.654,0,1.123,0.1,1.407,0.299s0.426,0.395,0.426,0.586c0,0.341-0.115,0.634-0.346,0.879
					c-0.231,0.245-0.479,0.367-0.741,0.367c-0.121,0-0.252-0.014-0.394-0.042c-0.775-0.128-1.364-0.192-1.77-0.192
					c-0.761,0-1.746,0.07-2.957,0.209C552.113,564.986,551.404,565.141,551.199,565.311z"/>
				<path fill="#FFFFFF" d="M567.292,574.422c-0.995,1.336-1.979,2.338-2.952,3.006s-1.865,1.002-2.675,1.002
					c-0.548,0-1.02-0.23-1.418-0.693c-0.397-0.461-0.597-1.055-0.597-1.779c0-1.868,0.835-3.881,2.505-6.037
					c1.669-2.156,3.328-3.234,4.977-3.234c0.597,0,1.041,0.341,1.332,1.023c0.093,0.227,0.238,0.341,0.438,0.341
					c0.568,0,0.853,0.22,0.853,0.661c0,0.22-0.036,0.521-0.107,0.905c-0.383,2.096-0.575,3.573-0.575,4.433
					c0,1.721,0.327,2.75,0.98,3.092c0.313,0.17,0.469,0.38,0.469,0.629c0,0.22-0.152,0.441-0.458,0.666
					c-0.306,0.223-0.601,0.335-0.885,0.335c-0.547,0-0.998-0.376-1.354-1.13C567.469,576.889,567.292,575.814,567.292,574.422z
					 M566.642,568.422c-0.938,0-2.028,0.88-3.271,2.639c-1.243,1.758-1.865,3.217-1.865,4.375c0,0.816,0.27,1.225,0.81,1.225
					c0.782,0,1.865-0.788,3.251-2.365c1.386-1.578,2.078-3.027,2.078-4.348C567.644,568.931,567.31,568.422,566.642,568.422z"/>
				<path fill="#FFFFFF" d="M575.071,574.07c0.07-0.127,0.156-0.305,0.256-0.532c0.482-1.108,0.927-1.978,1.332-2.606
					c0.405-0.628,0.851-1.23,1.337-1.806c0.487-0.575,0.931-1.013,1.333-1.312c0.4-0.298,0.765-0.506,1.092-0.623
					s0.643-0.176,0.948-0.176c0.618,0,1.123,0.187,1.514,0.56s0.586,0.809,0.586,1.306c0,0.221-0.069,0.42-0.208,0.597
					c-0.138,0.178-0.35,0.267-0.634,0.267c-0.298,0-0.572-0.131-0.82-0.395c-0.256-0.263-0.522-0.395-0.8-0.395
					c-0.738,0-1.762,0.896-3.069,2.686c-1.307,1.791-2.103,3.762-2.387,5.915c-0.071,0.554-0.206,0.92-0.405,1.098
					s-0.479,0.267-0.842,0.267c-0.348,0-0.601-0.26-0.757-0.777c-0.156-0.52-0.234-1.393-0.234-2.623
					c0-0.333,0.018-1.068,0.054-2.205c0.042-1.344,0.128-2.426,0.256-3.25c0.021-0.136,0.057-0.451,0.106-0.949
					c0.05-0.547,0.111-0.928,0.187-1.141c0.074-0.213,0.228-0.412,0.458-0.596c0.23-0.186,0.481-0.277,0.751-0.277
					c0.263,0,0.46,0.083,0.592,0.25s0.197,0.346,0.197,0.538c0,0.277-0.071,0.668-0.213,1.173c-0.164,0.561-0.26,0.947-0.288,1.161
					c-0.021,0.241-0.061,0.494-0.117,0.757c-0.071,0.305-0.143,1.108-0.213,2.408l-0.011,0.395V574.07z"/>
				<path fill="#FFFFFF" d="M592.293,569.872c-0.661,0.015-2.075,1.972-4.242,5.872c-0.731,1.314-1.158,2.03-1.278,2.147
					c-0.121,0.117-0.343,0.222-0.666,0.314s-0.592,0.138-0.805,0.138c-0.477,0-0.714-0.927-0.714-2.781
					c0-1.044,0.224-2.934,0.671-5.67c0.185-1.107,0.277-1.9,0.277-2.376c0-0.469,0.209-0.703,0.629-0.703
					c0.788,0,1.183,0.568,1.183,1.705c0,0.532-0.132,1.577-0.395,3.134c-0.306,1.775-0.462,2.855-0.469,3.239
					c0.44-0.427,1.087-1.36,1.939-2.803c1.208-1.976,2.098-3.228,2.67-3.757s1.163-0.794,1.774-0.794
					c0.462,0,0.829,0.31,1.103,0.927c0.273,0.619,0.439,2.093,0.496,4.423c0.014,0.583,0.067,1.017,0.16,1.3
					c0.092,0.285,0.159,0.427,0.202,0.427c0.334,0,1.059-1.137,2.174-3.41c0.597-1.2,1.178-2.114,1.742-2.739
					c0.565-0.625,1.192-0.938,1.882-0.938c0.575,0,0.994,0.297,1.257,0.891c0.263,0.593,0.451,1.472,0.565,2.637
					c0.106,1.18,0.271,2.26,0.495,3.24s0.634,1.609,1.231,1.887c0.404,0.191,0.607,0.415,0.607,0.671
					c0,0.249-0.171,0.505-0.512,0.767c-0.341,0.264-0.654,0.395-0.938,0.395c-0.568,0-1.076-0.348-1.523-1.044
					s-0.785-2.202-1.013-4.519c-0.1-0.931-0.195-1.592-0.287-1.982c-0.093-0.391-0.238-0.586-0.438-0.586
					c-0.298,0-0.651,0.284-1.061,0.853c-0.408,0.568-1.067,1.723-1.977,3.464c-0.711,1.356-1.249,2.261-1.614,2.712
					c-0.366,0.451-0.72,0.677-1.061,0.677c-0.306,0-0.579-0.123-0.821-0.367c-0.241-0.246-0.394-0.541-0.458-0.885
					c-0.063-0.345-0.131-1.192-0.202-2.542C592.772,571.549,592.577,570.242,592.293,569.872z"/>
			</g>
		</g>
	</g>
</g>
</svg>
